<svg width="46" height="52" viewBox="0 0 46 52" fill="none" xmlns="http://www.w3.org/2000/svg">
<path d="M20.6125 4.56033L6.41568 13.1319C4.91637 14.0371 4 15.6608 4 17.4122V34.8559C4 36.6575 4.96919 38.3198 6.53703 39.2072L20.7339 47.2431C22.262 48.108 24.1317 48.108 25.6598 47.2431L39.8567 39.2072C41.4245 38.3198 42.3937 36.6575 42.3937 34.8559V17.4122C42.3937 15.6608 41.4773 14.0371 39.978 13.1319L25.7812 4.56032C24.1919 3.60077 22.2018 3.60078 20.6125 4.56033Z" stroke="#0D2789" stroke-width="7"/>
<path d="M4 14.9533L23.1969 26.1815M42.3937 14.9533L23.1969 26.1815M23.1969 49.0001V26.1815" stroke="#0D2789" stroke-width="7"/>
</svg>
